HIERARCHY
ROOT Hips
{
	OFFSET 0.00000 0.00000 0.00000
	CHANNELS 6 Xposition Yposition Zposition Zrotation Yrotation Xrotation 
	JOINT LHipJoint
	{
		OFFSET 0 0 0
		CHANNELS 3 Zrotation Yrotation Xrotation
		JOINT LeftHip
		{
			OFFSET 1.58895 -1.83665 0.71753
			CHANNELS 3 Zrotation Yrotation Xrotation
			JOINT LeftKnee
			{
				OFFSET 2.50528 -6.88321 0.00000
				CHANNELS 3 Zrotation Yrotation Xrotation
				JOINT LeftAnkle
				{
					OFFSET 2.63244 -7.23257 0.00000
					CHANNELS 3 Zrotation Yrotation Xrotation
					JOINT LeftToe
					{
						OFFSET 0.23691 -0.65090 1.72750
						CHANNELS 3 Zrotation Yrotation Xrotation
						End Site
						{
							OFFSET 0.00000 -0.00000 0.92561
						}
					}
				}
			}
		}
	}
	JOINT RHipJoint
	{
		OFFSET 0 0 0
		CHANNELS 3 Zrotation Yrotation Xrotation
		JOINT RightHip
		{
			OFFSET -1.51435 -1.83665 0.71753
			CHANNELS 3 Zrotation Yrotation Xrotation
			JOINT RightKnee
			{
				OFFSET -2.54551 -6.99375 0.00000
				CHANNELS 3 Zrotation Yrotation Xrotation
				JOINT RightAnkle
				{
					OFFSET -2.66027 -7.30903 0.00000
					CHANNELS 3 Zrotation Yrotation Xrotation
					JOINT RightToe
					{
						OFFSET -0.22981 -0.63138 2.03959
						CHANNELS 3 Zrotation Yrotation Xrotation
						End Site
						{
							OFFSET -0.00000 -0.00000 1.07060
						}
					}
				}
			}
		}
	}
	JOINT lowerback
	{
		OFFSET 0 0 0
		CHANNELS 3 Zrotation Yrotation Xrotation
		JOINT Chest
		{
			OFFSET -0.02651 1.86275 -0.11152
			CHANNELS 3 Zrotation Yrotation Xrotation
			JOINT Chest2
			{
				OFFSET 0.01019 1.86224 0.04087
				CHANNELS 3 Zrotation Yrotation Xrotation
				JOINT lowerneck
				{
					OFFSET 0 0 0
					CHANNELS 3 Zrotation Yrotation Xrotation
					JOINT Neck
					{
						OFFSET -0.01926 1.80512 0.08867
						CHANNELS 3 Zrotation Yrotation Xrotation
						JOINT Head
						{
							OFFSET 0.05516 1.76451 -0.38475
							CHANNELS 3 Zrotation Yrotation Xrotation
							End Site
							{
								OFFSET 0.01592 1.82587 -0.14001
							}
						}
					}
				}
				JOINT LeftCollar
				{
					OFFSET 0 0 0
					CHANNELS 3 Zrotation Yrotation Xrotation
					JOINT LeftShoulder
					{
						OFFSET 3.47116 1.51376 0.14491
CHANNELS 3 Zrotation Xrotation Yrotation
						JOINT LeftElbow
						{
OFFSET 0 -4.780950 0.000000
CHANNELS 3 Zrotation Xrotation Yrotation
							JOINT LeftWrist
							{
OFFSET 0 -3.586150 -0.000000
CHANNELS 3 Zrotation Xrotation Yrotation
								JOINT lhand
								{
									OFFSET 0 0 0
CHANNELS 3 Zrotation Xrotation Yrotation
									JOINT LFingers
									{
OFFSET 0 -0.659810 0.000000
CHANNELS 3 Zrotation Xrotation Yrotation
										End Site
										{
OFFSET 0 -0.531960 0.000000
										}
									}
								}
								JOINT LThumb
								{
OFFSET 0 0.000000 0.000000
CHANNELS 3 Zrotation Xrotation Yrotation
									End Site
									{
OFFSET 0 -0.540080 0.540080
									}
								}
							}
						}
					}
				}
				JOINT RightCollar
				{
					OFFSET 0 0 0
					CHANNELS 3 Zrotation Yrotation Xrotation
					JOINT RightShoulder
					{
						OFFSET -3.31725 1.61216 0.35156
CHANNELS 3 Zrotation Xrotation Yrotation
						JOINT RightElbow
						{
OFFSET 0 -4.489130 0.000000
CHANNELS 3 Zrotation Xrotation Yrotation
							JOINT RightWrist
							{
OFFSET 0 -3.705100 0.000000
CHANNELS 3 Zrotation Xrotation Yrotation
								JOINT rhand
								{
									OFFSET 0 0 0
CHANNELS 3 Zrotation Xrotation Yrotation
									JOINT RFingers
									{
OFFSET 0 -0.449140 0.000000
CHANNELS 3 Zrotation Xrotation Yrotation
										End Site
										{
OFFSET 0 -0.362110 0.000000
										}
									}
								}
								JOINT RThumb
								{
OFFSET 0 0.000000 0.000000
CHANNELS 3 Zrotation Xrotation Yrotation
									End Site
									{
OFFSET 0 -0.367630 0.367630
									}
								}
							}
						}
					}
				}
			}
		}
	}
}
MOTION
Frames: 10
Frame Time: 0.008333333333333333
-0.632700 18.696900 5.638000 -0.527000 -6.057300 3.036100 0.000000 0.000000 0.000000 -14.710100 -5.358500 -3.131600 1.231100 7.036500 19.823600 1.827100 8.459400 -29.760900 7.608900 -15.823900 -51.141400 0.000000 0.000000 0.000000 14.038200 10.169600 7.303600 0.000000 0.000000 -0.000000 -0.909800 -8.030200 -22.640100 -0.146400 2.465500 -6.794000 -2.077600 1.803500 0.670300 0.162800 2.361100 -2.936300 1.241200 1.237600 -3.486100 -1.404600 -2.607200 -12.828600 3.668600 -4.440600 26.876200 0.980300 -1.737700 10.891400 0.000000 -0.000000 0.000000 1.270600 13.440400 -32.605500 21.437300 -32.335200 6.282200 15.864100 -7.392900 30.572400 0.000000 0.000000 0.000000 -7.125000 0.000000 0.000000 -8.807400 -1.247400 -9.104400 0.000000 -0.000000 0.000000 -1.946400 19.162000 27.993200 -24.919400 -36.121500 -8.242300 -13.318700 22.284800 28.932500 0.000000 0.000000 0.000000 7.125000 0.000000 -0.000000 19.672500 58.480000 -6.650200
-0.633068 18.696900 5.637632 -0.532669 -6.047729 3.035143 0.000000 0.000000 0.000000 -14.702370 -5.369249 -3.131821 1.231468 7.037678 19.827060 1.829530 8.441731 -29.765170 7.599403 -15.816538 -51.106503 0.000000 0.000000 0.000000 14.045268 10.160103 7.303306 0.000000 0.000000 0.000000 -0.906340 -8.052213 -22.627142 -0.152216 2.513944 -6.928361 -2.074066 1.806813 0.643869 0.163978 2.366327 -2.927539 1.241347 1.239882 -3.462246 -1.402833 -2.612280 -12.831471 3.655716 -4.445091 26.888789 0.974705 -1.740939 10.896406 0.000000 0.000000 0.000000 1.258747 13.419344 -32.577523 21.422649 -32.318340 6.274396 15.827141 -7.343131 30.592352 0.000000 0.000000 0.000000 -7.125000 0.000000 0.000000 -8.830518 -1.261167 -9.130978 0.000000 0.000000 0.000000 -1.945222 19.156699 28.007556 -24.930591 -36.132912 -8.248926 -13.357057 22.246516 28.963863 0.000000 0.000000 0.000000 7.125000 0.000000 0.000000 19.654536 58.517916 -6.661832
-0.633389 18.696569 5.636744 -0.539991 -6.042599 3.032485 0.000000 0.000000 0.000000 -14.687505 -5.353210 -3.148861 1.233112 7.042163 19.840395 1.832290 8.400013 -29.756070 7.590803 -15.809884 -51.075007 0.000000 0.000000 0.000000 14.054462 10.154810 7.305090 0.000000 0.000000 0.000000 -0.907604 -8.041485 -22.630059 -0.147591 2.475220 -6.821063 -2.072091 1.804079 0.629250 0.174227 2.363475 -2.918353 1.251605 1.238338 -3.444723 -1.411035 -2.611218 -12.830988 3.640659 -4.437156 26.888197 0.971708 -1.739974 10.895602 0.000000 0.000000 0.000000 1.239334 13.411989 -32.564004 21.429826 -32.326615 6.278214 15.809601 -7.334655 30.590334 0.000000 0.000000 0.000000 -7.125000 0.000000 0.000000 -8.840406 -1.256226 -9.140689 0.000000 0.000000 0.000000 -1.962848 19.151729 28.028196 -24.947687 -36.150418 -8.259001 -13.390927 22.224863 28.983651 0.000000 0.000000 0.000000 7.125000 0.000000 0.000000 19.633218 58.543926 -6.666614
-0.633558 18.696012 5.635420 -0.546693 -6.040721 3.028752 0.000000 0.000000 0.000000 -14.672184 -5.329101 -3.170993 1.235196 7.047827 19.857239 1.834191 8.357808 -29.741112 7.585459 -15.805734 -51.055449 0.000000 0.000000 0.000000 14.062985 10.152763 7.307659 0.000000 0.000000 0.000000 -0.912257 -8.005550 -22.643008 -0.135572 2.372032 -6.535146 -2.070778 1.797342 0.625921 0.187182 2.355070 -2.911370 1.264774 1.234177 -3.435743 -1.422423 -2.604160 -12.825732 3.631191 -4.421053 26.878013 0.972416 -1.735117 10.890217 0.000000 0.000000 0.000000 1.218560 13.414975 -32.554486 21.448896 -32.348568 6.288396 15.789838 -7.342930 30.594603 0.000000 0.000000 0.000000 -7.125000 0.000000 0.000000 -8.852217 -1.257178 -9.153337 0.000000 0.000000 0.000000 -1.984774 19.150909 28.043997 -24.969124 -36.172370 -8.271628 -13.416843 22.221384 28.979218 0.000000 0.000000 0.000000 7.125000 0.000000 0.000000 19.603265 58.545446 -6.656678
-0.633411 18.695350 5.633727 -0.549491 -6.040794 3.024703 0.000000 0.000000 0.000000 -14.665779 -5.322401 -3.182257 1.236595 7.051803 19.869019 1.833455 8.348311 -29.730215 7.587079 -15.806912 -51.061265 0.000000 0.000000 0.000000 14.066814 10.152983 7.309279 0.000000 0.000000 0.000000 -0.918810 -7.952100 -22.658910 -0.119595 2.228910 -6.138761 -2.068938 1.789023 0.634461 0.194177 2.344026 -2.910561 1.271032 1.228802 -3.439425 -1.427798 -2.590614 -12.813142 3.638922 -4.401838 26.862184 0.978821 -1.726356 10.881456 0.000000 0.000000 0.000000 1.205014 13.424767 -32.534682 21.467228 -32.369624 6.298262 15.737050 -7.335273 30.645771 0.000000 0.000000 0.000000 -7.125000 0.000000 0.000000 -8.887556 -1.299438 -9.197217 0.000000 0.000000 0.000000 -1.991032 19.160111 28.038697 -24.993198 -36.196960 -8.285837 -13.428991 22.240379 28.929891 0.000000 0.000000 0.000000 7.125000 0.000000 0.000000 19.556220 58.501861 -6.619204
-0.632855 18.695232 5.632374 -0.542344 -6.021728 3.016908 0.000000 0.000000 0.000000 -14.674019 -5.326804 -3.185416 1.237654 7.054756 19.877733 1.827610 8.371780 -29.707740 7.597417 -15.815037 -51.099367 0.000000 0.000000 0.000000 14.058518 10.132634 7.310762 0.000000 0.000000 0.000000 -0.922706 -7.915337 -22.664868 -0.113019 2.167047 -5.967628 -2.058174 1.780022 0.641639 0.181214 2.331689 -2.912952 1.251883 1.222202 -3.444536 -1.413692 -2.582380 -12.804299 3.658367 -4.398697 26.853916 0.983932 -1.721477 10.876781 0.000000 0.000000 0.000000 1.208495 13.430609 -32.494512 21.466352 -32.368680 6.297774 15.664033 -7.301733 30.711107 0.000000 0.000000 0.000000 -7.125000 0.000000 0.000000 -8.935836 -1.352527 -9.256626 0.000000 0.000000 0.000000 -1.972292 19.174218 28.044635 -25.007669 -36.211810 -8.294392 -13.444885 22.236419 28.908354 0.000000 0.000000 0.000000 7.125000 0.000000 0.000000 19.524705 58.485114 -6.600121
-0.632183 18.695200 5.631216 -0.525962 -6.006331 3.006305 0.000000 0.000000 0.000000 -14.693167 -5.326888 -3.185081 1.238392 7.056710 19.883487 1.824983 8.382015 -29.697517 7.604245 -15.820386 -51.124471 0.000000 0.000000 0.000000 14.038932 10.114961 7.314989 0.000000 0.000000 0.000000 -0.924926 -7.893531 -22.667392 -0.110625 2.144436 -5.904989 -2.051280 1.777185 0.644617 0.161628 2.327385 -2.912973 1.227967 1.219550 -3.444964 -1.396842 -2.579083 -12.797386 3.676298 -4.403075 26.849682 0.987018 -1.719792 10.874107 0.000000 0.000000 0.000000 1.220199 13.430830 -32.475106 21.462712 -32.364537 6.295823 15.617635 -7.280081 30.728589 0.000000 0.000000 0.000000 -7.125000 0.000000 0.000000 -8.964128 -1.362252 -9.288117 0.000000 0.000000 0.000000 -1.946272 19.178580 28.047600 -25.010762 -36.214978 -8.296231 -13.476691 22.226262 28.922287 0.000000 0.000000 0.000000 7.125000 0.000000 0.000000 19.501375 58.505219 -6.601348
-0.631539 18.695169 5.630077 -0.502663 -5.997607 2.993374 0.000000 0.000000 0.000000 -14.720866 -5.328438 -3.179322 1.238785 7.057685 19.886354 1.826283 8.377014 -29.702822 7.604366 -15.820465 -51.124871 0.000000 0.000000 0.000000 14.011241 10.103293 7.321736 0.000000 0.000000 0.000000 -0.926061 -7.883563 -22.669428 -0.110800 2.146315 -5.910061 -2.049813 1.781557 0.647311 0.138569 2.332494 -2.911784 1.203192 1.221666 -3.444381 -1.380819 -2.578893 -12.788599 3.693869 -4.411606 26.846373 0.989590 -1.720092 10.871510 0.000000 0.000000 0.000000 1.239083 13.427431 -32.480841 21.457994 -32.359125 6.293301 15.598768 -7.269357 30.707056 0.000000 0.000000 0.000000 -7.125000 0.000000 0.000000 -8.972786 -1.337579 -9.293480 0.000000 0.000000 0.000000 -1.915005 19.174871 28.040796 -25.004327 -36.208381 -8.292441 -13.520515 22.219808 28.956487 0.000000 0.000000 0.000000 7.125000 0.000000 0.000000 19.479682 58.547046 -6.613393
-0.631244 18.695022 5.628531 -0.477557 -5.999080 2.978871 0.000000 0.000000 0.000000 -14.752818 -5.350672 -3.161211 1.238711 7.057611 19.886133 1.831952 8.360301 -29.728811 7.591261 -15.810232 -51.076795 0.000000 0.000000 0.000000 13.982675 10.101820 7.330055 0.000000 0.000000 0.000000 -0.927313 -7.879072 -22.677232 -0.110800 2.146389 -5.910356 -2.055630 1.795251 0.660784 0.116850 2.349722 -2.913625 1.183019 1.230133 -3.453879 -1.371321 -2.577420 -12.767985 3.717207 -4.417863 26.836654 0.995774 -1.719577 10.864369 0.000000 0.000000 0.000000 1.265366 13.425664 -32.516990 21.452693 -32.353015 6.290430 15.602449 -7.259565 30.679521 0.000000 0.000000 0.000000 -7.125000 0.000000 0.000000 -8.967927 -1.310633 -9.284277 0.000000 0.000000 0.000000 -1.879077 19.169938 28.008181 -24.992474 -36.196307 -8.285447 -13.564689 22.239981 28.971285 0.000000 0.000000 0.000000 7.125000 0.000000 0.000000 19.444122 58.570752 -6.611920
-0.631513 18.694812 5.627111 -0.475678 -5.999363 2.971692 0.000000 0.000000 0.000000 -14.754908 -5.364518 -3.153116 1.238512 7.057037 19.884410 1.833113 8.356423 -29.733576 7.583916 -15.804506 -51.049692 0.000000 0.000000 0.000000 13.982782 10.102226 7.331801 0.000000 0.000000 0.000000 -0.927688 -7.883972 -22.684097 -0.112303 2.160549 -5.949653 -2.044292 1.808944 0.673005 0.104460 2.367575 -2.922039 1.162596 1.238725 -3.469136 -1.380605 -2.579642 -12.718260 3.754569 -4.427627 26.804649 1.010035 -1.721629 10.844080 0.000000 0.000000 0.000000 1.284200 13.432474 -32.540555 21.435748 -32.333444 6.281361 15.623096 -7.238317 30.710396 0.000000 0.000000 0.000000 -7.125000 0.000000 0.000000 -8.959187 -1.344914 -9.280208 0.000000 0.000000 0.000000 -1.847970 19.185164 27.971059 -24.988947 -36.192684 -8.283398 -13.577686 22.271548 28.931743 0.000000 0.000000 0.000000 7.125000 0.000000 0.000000 19.403053 58.536487 -6.581149
